<?xml version="1.0" encoding="UTF-8"?>
<svg id="Layer_2" data-name="Layer 2" xmlns="http://www.w3.org/2000/svg" viewBox="0 0 335.26 252.02">
  <defs>
    <style>
      .cls-1 {
        fill: #da1866;
      }

      .cls-2, .cls-3 {
        fill: #ffc10d;
      }

      .cls-4, .cls-3 {
        opacity: .8;
      }

      .cls-5 {
        fill: #f37422;
      }
    </style>
  </defs>
  <g id="_9" data-name="9">
    <g>
      <path class="cls-5" d="M29.84,187.32c8.42,27.6,37.01,52.25,82.67,52.25s161.42-16.16,171.87-77.22c7.25-42.38-33.36-189.05-143.19-158.09C97.24,16.64,14.61,137.4,29.84,187.32Z"/>
      <g class="cls-4">
        <path class="cls-1" d="M264.14,89.78c.82-32.88,5.88-56.48,34.42-43.88,28.55,12.6,47.71,53.68,29.67,68.2-18.05,14.52-65.11,16.64-64.09-24.32Z"/>
      </g>
      <path class="cls-3" d="M131.37,53.01C57.33,69.83,.28,94.51,0,138.86c-.11,6.31,.93,13.02,3.24,20.17,10.19,31.47,112.23,92.99,167.5,92.99s94.8-57.32,128.16-120.58c3.42-6.49,5.95-15.89,5.89-26.15,.14-36.41-32.13-84.38-173.42-52.28Z"/>
      <g class="cls-4">
        <path class="cls-2" d="M58.56,35.81c-10.57-1.59-18.51-2.81-20.11,7.75-1.08,7.17,1.39,16.48,11.95,18.07,10.57,1.59,29.76,2.48,27.42-7.95-1.24-5.52-8.7-16.28-19.26-17.88Z"/>
      </g>
      <g>
        <path d="M95.34,118.33c-.07-.13-.35-.35-.84-.66-.49-.32-1.12-.63-1.89-.95-.77-.31-1.62-.56-2.56-.75-.94-.19-1.9-.22-2.9-.09-2.75,.36-4.29,1.58-4.65,3.66-.11,.64-.06,1.14,.17,1.53,.22,.39,.59,.71,1.1,.96,.52,.26,1.19,.48,2.01,.64,.82,.17,1.78,.35,2.87,.56,1.5,.29,2.83,.64,4.01,1.05,1.18,.41,2.13,1,2.87,1.75,.73,.75,1.24,1.71,1.5,2.88s.25,2.62-.05,4.35c-.37,2.11-1.03,3.95-1.98,5.51-.96,1.55-2.09,2.86-3.4,3.91-1.3,1.05-2.74,1.87-4.31,2.47-1.56,.6-3.14,1.01-4.72,1.21-1.21,.16-2.44,.22-3.68,.17-1.24-.04-2.43-.19-3.57-.44-1.14-.24-2.23-.58-3.27-.99-1.04-.42-1.98-.93-2.81-1.55l4.68-8.01c.09,.16,.44,.44,1.04,.85,.6,.41,1.36,.79,2.28,1.15,.92,.36,1.98,.66,3.15,.89,1.17,.22,2.41,.25,3.68,.09,2.71-.36,4.22-1.47,4.55-3.34,.12-.7,.02-1.26-.3-1.66-.33-.41-.82-.75-1.47-1.02-.65-.28-1.44-.51-2.37-.7-.92-.19-1.93-.4-3.01-.64-1.43-.33-2.66-.73-3.67-1.2-1.01-.47-1.82-1.06-2.41-1.78-.59-.72-.97-1.58-1.14-2.59-.17-1.01-.14-2.22,.11-3.63,.34-1.97,.98-3.76,1.89-5.37,.92-1.6,2.03-2.99,3.33-4.18,1.3-1.19,2.74-2.14,4.31-2.87,1.57-.72,3.18-1.19,4.83-1.41,1.15-.15,2.27-.17,3.34-.08,1.08,.1,2.09,.28,3.05,.54,.96,.25,1.84,.57,2.64,.94,.8,.38,1.53,.76,2.19,1.16l-4.61,7.64Z"/>
        <path d="M99.53,143.74l6.55-37.57,14.14-1.85c1.59-.21,2.98-.03,4.17,.54,1.19,.57,2.16,1.39,2.9,2.46,.74,1.08,1.25,2.34,1.53,3.78,.28,1.44,.28,2.95,.02,4.5-.29,1.66-.82,3.28-1.6,4.86-.78,1.58-1.73,3.04-2.86,4.36-1.13,1.32-2.41,2.42-3.84,3.29-1.43,.88-2.94,1.42-4.52,1.63l-6.72,.88-2.11,12.12-7.65,1Zm11.08-20.69l6.25-.82c.9-.12,1.76-.66,2.56-1.63,.81-.96,1.36-2.3,1.66-3.99,.15-.88,.19-1.63,.09-2.23-.09-.61-.27-1.1-.54-1.48-.27-.38-.6-.63-1.01-.78-.4-.13-.82-.17-1.26-.12l-5.97,.78-1.79,10.27Z"/>
        <path d="M153.21,129.26l-1.32,7.62-23.29,3.05,6.55-37.57,22.87-2.99-1.33,7.62-15.21,1.99-1.27,7.3,13.06-1.71-1.23,7.04-13.07,1.71-1.39,7.99,15.63-2.05Z"/>
        <path d="M157.27,117.51c.39-2.26,1.16-4.55,2.29-6.89,1.14-2.33,2.58-4.48,4.32-6.43,1.74-1.96,3.73-3.61,5.98-4.98,2.24-1.36,4.67-2.21,7.28-2.55,3.11-.41,5.68,0,7.7,1.21,2.02,1.21,3.38,2.97,4.08,5.26l-6.69,5.42c-.2-.94-.53-1.7-.99-2.28-.46-.58-1-1.02-1.62-1.33-.62-.32-1.26-.51-1.95-.57-.69-.07-1.38-.05-2.06,.04-1.46,.19-2.8,.69-4,1.5-1.21,.81-2.26,1.79-3.16,2.95-.9,1.15-1.64,2.42-2.21,3.8-.58,1.39-.99,2.77-1.23,4.15-.26,1.48-.3,2.88-.14,4.2,.16,1.32,.53,2.46,1.11,3.42,.58,.96,1.35,1.68,2.32,2.16,.96,.48,2.11,.63,3.45,.45,.68-.09,1.41-.28,2.17-.57,.77-.29,1.52-.68,2.26-1.17,.74-.49,1.45-1.11,2.12-1.83,.67-.72,1.26-1.58,1.77-2.58l5.53,3.36c-.74,1.44-1.7,2.77-2.87,3.99-1.17,1.22-2.46,2.29-3.86,3.19-1.41,.91-2.86,1.65-4.36,2.23-1.5,.57-2.93,.95-4.3,1.13-2.4,.32-4.5,.05-6.31-.8-1.82-.85-3.28-2.1-4.41-3.74-1.13-1.64-1.88-3.58-2.27-5.8-.39-2.22-.37-4.54,.04-6.94Z"/>
        <path d="M187.96,132.17l6.55-37.57,7.65-1-6.55,37.57-7.65,1Z"/>
        <path d="M217.52,91.58l6.91-.9,5.54,35.99-7.85,1.03-1.1-8.08-10.32,1.35-3.98,8.74-7.85,1.03,18.64-39.16Zm3.29,22.22l-1.56-12.78-6.28,13.8,7.84-1.03Z"/>
        <path d="M233.23,126.24l6.55-37.57,7.65-1-5.22,29.95,16.05-2.1-1.33,7.62-23.71,3.1Z"/>
        <path d="M80.97,206.25c-3.07,.4-5.74,.08-8.03-.95-2.29-1.03-4.13-2.55-5.53-4.54-1.4-1.99-2.34-4.35-2.83-7.09-.49-2.73-.48-5.62,.06-8.66,.54-3.08,1.57-6.13,3.1-9.12,1.53-3,3.4-5.71,5.63-8.13,2.22-2.42,4.72-4.45,7.46-6.07,2.75-1.63,5.62-2.65,8.62-3.04,3.06-.4,5.74-.09,8.03,.95,2.29,1.04,4.12,2.56,5.52,4.58,1.39,2.01,2.33,4.39,2.8,7.12,.47,2.74,.45,5.58-.06,8.53-.54,3.08-1.57,6.12-3.1,9.12-1.53,3-3.4,5.7-5.6,8.12-2.21,2.42-4.69,4.46-7.44,6.11-2.76,1.65-5.63,2.68-8.62,3.07Zm-6.63-22.37c-.32,1.8-.39,3.52-.22,5.16,.17,1.63,.59,3.05,1.28,4.25,.68,1.2,1.63,2.11,2.85,2.72,1.22,.62,2.71,.81,4.45,.58,1.83-.24,3.49-.87,5-1.88,1.51-1.01,2.82-2.25,3.95-3.71,1.13-1.46,2.06-3.06,2.8-4.82,.74-1.76,1.27-3.51,1.57-5.27,.32-1.8,.39-3.53,.22-5.16-.17-1.63-.61-3.04-1.31-4.22-.71-1.18-1.66-2.06-2.87-2.66-1.21-.6-2.68-.78-4.43-.55-1.82,.24-3.48,.85-4.96,1.84-1.48,.99-2.8,2.2-3.94,3.65-1.14,1.44-2.09,3.04-2.83,4.79-.74,1.75-1.27,3.51-1.57,5.27Z"/>
        <path d="M107.2,202.42l8.17-46.91,28.09-3.68-1.66,9.52-18.53,2.43-1.76,10.11,15.27-2-1.53,8.79-15.26,2-3.23,18.5-9.56,1.25Z"/>
        <path d="M140.36,198.09l8.17-46.91,28.09-3.68-1.66,9.52-18.53,2.42-1.76,10.11,15.27-2-1.53,8.79-15.27,2-3.22,18.5-9.56,1.25Z"/>
        <path d="M204.25,180.43l-1.66,9.51-29.08,3.81,8.18-46.91,28.55-3.74-1.66,9.52-19,2.48-1.59,9.11,16.31-2.13-1.53,8.79-16.31,2.14-1.74,9.97,19.52-2.55Z"/>
        <path d="M208.42,189.18l8.17-46.91,18.65-2.44c1.94-.25,3.66-.02,5.15,.68,1.49,.71,2.71,1.74,3.65,3.07,.94,1.34,1.59,2.91,1.94,4.72,.35,1.81,.35,3.68,.01,5.62-.25,1.45-.65,2.87-1.2,4.25-.54,1.38-1.21,2.71-2,3.97-.79,1.27-1.69,2.43-2.69,3.48-1,1.06-2.08,1.98-3.24,2.78l6.05,16.25-10.78,1.41-5.29-14.09-6.23,.82-2.64,15.13-9.56,1.25Zm13.84-25.83l8.74-1.15c1.13-.15,2.2-.88,3.23-2.2,1.03-1.32,1.71-2.92,2.04-4.82,.34-1.94,.14-3.42-.59-4.44-.73-1.03-1.64-1.46-2.73-1.32l-8.45,1.11-2.23,12.81Z"/>
      </g>
    </g>
  </g>
</svg>